REM DIRINDEX 1\2,1\3,1\4,1\5\6,1\5\7,1\8
REM DIRNAME folder01,folder02,folder03,folder04,folder05,folder06,folder07,folder08
TITLE ""
FILE "047 Åy047ÅzUnit3 (0529 toxic_0540 convey).mp3" MP3
  TRACK 01 AUDIO
    TITLE "0:"
    INDEX 01 00:00:00
  TRACK 02 AUDIO
    TITLE "2:cjc115_1816"
    INDEX 01 00:00:07
  TRACK 03 AUDIO
    TITLE "0:"
    INDEX 01 00:01:17
  TRACK 04 AUDIO
    TITLE "3:cjc115_1817"
    INDEX 01 00:01:26
  TRACK 05 AUDIO
    TITLE "0:"
    INDEX 01 00:03:59
  TRACK 06 AUDIO
    TITLE "4:cjc115_1818"
    INDEX 01 00:03:64
  TRACK 07 AUDIO
    TITLE "0:"
    INDEX 01 00:07:51
  TRACK 08 AUDIO
    TITLE "2:cjc115_1819"
    INDEX 01 00:08:58
  TRACK 09 AUDIO
    TITLE "0:"
    INDEX 01 00:09:63
  TRACK 10 AUDIO
    TITLE "3:cjc115_1820"
    INDEX 01 00:09:71
  TRACK 11 AUDIO
    TITLE "0:"
    INDEX 01 00:11:11
  TRACK 12 AUDIO
    TITLE "4:cjc115_1821"
    INDEX 01 00:11:23
  TRACK 13 AUDIO
    TITLE "0:"
    INDEX 01 00:16:67
  TRACK 14 AUDIO
    TITLE "2:cjc115_1822"
    INDEX 01 00:17:74
  TRACK 15 AUDIO
    TITLE "0:"
    INDEX 01 00:19:09
  TRACK 16 AUDIO
    TITLE "3:cjc115_1823"
    INDEX 01 00:19:16
  TRACK 17 AUDIO
    TITLE "0:"
    INDEX 01 00:21:00
  TRACK 18 AUDIO
    TITLE "4:cjc115_1824"
    INDEX 01 00:21:08
  TRACK 19 AUDIO
    TITLE "0:"
    INDEX 01 00:24:63
  TRACK 20 AUDIO
    TITLE "2:cjc115_1825"
    INDEX 01 00:25:70
  TRACK 21 AUDIO
    TITLE "0:"
    INDEX 01 00:27:12
  TRACK 22 AUDIO
    TITLE "3:cjc115_1826"
    INDEX 01 00:27:14
  TRACK 23 AUDIO
    TITLE "0:"
    INDEX 01 00:28:19
  TRACK 24 AUDIO
    TITLE "4:cjc115_1827"
    INDEX 01 00:28:27
  TRACK 25 AUDIO
    TITLE "0:"
    INDEX 01 00:32:56
  TRACK 26 AUDIO
    TITLE "2:cjc115_1828"
    INDEX 01 00:33:64
  TRACK 27 AUDIO
    TITLE "0:"
    INDEX 01 00:34:71
  TRACK 28 AUDIO
    TITLE "3:cjc115_1829"
    INDEX 01 00:35:06
  TRACK 29 AUDIO
    TITLE "0:"
    INDEX 01 00:36:25
  TRACK 30 AUDIO
    TITLE "4:cjc115_1830"
    INDEX 01 00:36:31
  TRACK 31 AUDIO
    TITLE "0:"
    INDEX 01 00:40:19
  TRACK 32 AUDIO
    TITLE "2:cjc115_1831"
    INDEX 01 00:41:26
  TRACK 33 AUDIO
    TITLE "0:"
    INDEX 01 00:42:43
  TRACK 34 AUDIO
    TITLE "3:cjc115_1832"
    INDEX 01 00:42:51
  TRACK 35 AUDIO
    TITLE "0:"
    INDEX 01 00:45:06
  TRACK 36 AUDIO
    TITLE "4:cjc115_1833"
    INDEX 01 00:45:14
  TRACK 37 AUDIO
    TITLE "0:"
    INDEX 01 00:48:14
  TRACK 38 AUDIO
    TITLE "2:cjc115_1834"
    INDEX 01 00:49:23
  TRACK 39 AUDIO
    TITLE "0:"
    INDEX 01 00:50:37
  TRACK 40 AUDIO
    TITLE "3:cjc115_1835"
    INDEX 01 00:50:46
  TRACK 41 AUDIO
    TITLE "0:"
    INDEX 01 00:53:02
  TRACK 42 AUDIO
    TITLE "4:cjc115_1836"
    INDEX 01 00:53:08
  TRACK 43 AUDIO
    TITLE "0:"
    INDEX 01 00:56:06
  TRACK 44 AUDIO
    TITLE "2:cjc115_1837"
    INDEX 01 00:57:15
  TRACK 45 AUDIO
    TITLE "0:"
    INDEX 01 00:58:30
  TRACK 46 AUDIO
    TITLE "3:cjc115_1838"
    INDEX 01 00:58:38
  TRACK 47 AUDIO
    TITLE "0:"
    INDEX 01 01:00:51
  TRACK 48 AUDIO
    TITLE "4:cjc115_1839"
    INDEX 01 01:00:60
  TRACK 49 AUDIO
    TITLE "0:"
    INDEX 01 01:04:17
  TRACK 50 AUDIO
    TITLE "2:cjc115_1840"
    INDEX 01 01:05:26
  TRACK 51 AUDIO
    TITLE "0:"
    INDEX 01 01:06:45
  TRACK 52 AUDIO
    TITLE "3:cjc115_1841"
    INDEX 01 01:06:53
  TRACK 53 AUDIO
    TITLE "0:"
    INDEX 01 01:09:26
  TRACK 54 AUDIO
    TITLE "4:cjc115_1842"
    INDEX 01 01:09:32
  TRACK 55 AUDIO
    TITLE "0:"
    INDEX 01 01:13:02
  TRACK 56 AUDIO
    TITLE "2:cjc115_1843"
    INDEX 01 01:14:23
  TRACK 57 AUDIO
    TITLE "0:"
    INDEX 01 01:15:35
  TRACK 58 AUDIO
    TITLE "3:cjc115_1844"
    INDEX 01 01:15:40
  TRACK 59 AUDIO
    TITLE "0:"
    INDEX 01 01:17:30
  TRACK 60 AUDIO
    TITLE "4:cjc115_1845"
    INDEX 01 01:17:37
  TRACK 61 AUDIO
    TITLE "0:"
    INDEX 01 01:21:27
  TRACK 62 AUDIO
    TITLE "2:cjc115_1846"
    INDEX 01 01:22:35
  TRACK 63 AUDIO
    TITLE "0:"
    INDEX 01 01:23:42
  TRACK 64 AUDIO
    TITLE "3:cjc115_1847"
    INDEX 01 01:23:50
  TRACK 65 AUDIO
    TITLE "0:"
    INDEX 01 01:25:66
  TRACK 66 AUDIO
    TITLE "4:cjc115_1848"
    INDEX 01 01:26:01
  TRACK 67 AUDIO
    TITLE "0:"
    INDEX 01 01:29:50
  TRACK 68 AUDIO
    TITLE "2:cjc115_1849"
    INDEX 01 01:30:58
  TRACK 69 AUDIO
    TITLE "0:"
    INDEX 01 01:32:00
  TRACK 70 AUDIO
    TITLE "3:cjc115_1850"
    INDEX 01 01:32:12
  TRACK 71 AUDIO
    TITLE "0:"
    INDEX 01 01:34:54
  TRACK 72 AUDIO
    TITLE "4:cjc115_1851"
    INDEX 01 01:34:59
  TRACK 73 AUDIO
    TITLE "0:"
    INDEX 01 01:38:59
